<svg width="32" height="32" viewBox="0 0 32 32" fill="none" xmlns="http://www.w3.org/2000/svg">
<path d="M1.26587 28.1923V9.57692C1.26587 9.30078 1.48973 9.07692 1.76587 9.07692H30.7659C31.042 9.07692 31.2659 9.30078 31.2659 9.57692V28.1923C31.2659 28.4685 31.042 28.6923 30.7659 28.6923H1.76587C1.48973 28.6923 1.26587 28.4685 1.26587 28.1923Z" stroke="#181715"/>
<path d="M2.41968 6.76923V9.07692" stroke="#181715"/>
<path d="M30.1121 6.76923V9.07692" stroke="#181715"/>
<path d="M30.7659 6.76923H1.76587C1.48973 6.76923 1.26587 6.54537 1.26587 6.26923V1.5C1.26587 1.22386 1.48973 1 1.76587 1H30.7659C31.042 1 31.2659 1.22386 31.2659 1.5V6.26923C31.2659 6.54537 31.042 6.76923 30.7659 6.76923Z" stroke="#181715"/>
<path d="M1.26587 25.8077H31.2659" stroke="#181715"/>
<path d="M5.88135 12.6923V12.3846C5.88135 11.8323 6.32906 11.3846 6.88135 11.3846H25.6506C26.2029 11.3846 26.6506 11.8323 26.6506 12.3846V12.6923C26.6506 13.2446 26.2029 13.6923 25.6506 13.6923H6.88135C6.32906 13.6923 5.88135 13.2446 5.88135 12.6923Z" stroke="#181715"/>
<path d="M27.3042 16H5.22729C4.95115 16 4.72729 16.2239 4.72729 16.5V23.5769C4.72729 23.8531 4.95115 24.0769 5.2273 24.0769H27.3042C27.5804 24.0769 27.8042 23.8531 27.8042 23.5769V16.5C27.8042 16.2239 27.5804 16 27.3042 16Z" stroke="#181715"/>
<path d="M3.57349 28.6923V30.5C3.57349 30.7761 3.79734 31 4.07349 31H5.38118C5.65732 31 5.88118 30.7761 5.88118 30.5V28.6923" stroke="#181715"/>
<path d="M26.6504 28.6923V30.5C26.6504 30.7761 26.8742 31 27.1504 31H28.4581C28.7342 31 28.9581 30.7761 28.9581 30.5V28.6923" stroke="#181715"/>
<path d="M11.0735 4.53846V3.80769C11.0735 3.53155 11.2973 3.30769 11.5735 3.30769H20.9581C21.2342 3.30769 21.4581 3.53155 21.4581 3.80769V4.53846C21.4581 4.8146 21.2342 5.03846 20.9581 5.03846H11.5735C11.2973 5.03846 11.0735 4.8146 11.0735 4.53846Z" stroke="#181715"/>
<path d="M7.61182 2.65385C7.90863 2.65385 8.15992 2.74349 8.3833 2.93412L8.47803 3.02201C8.72478 3.27344 8.84319 3.56265 8.84326 3.91654C8.84326 4.27066 8.72497 4.5605 8.47803 4.81205C8.23136 5.06332 7.95109 5.18021 7.61182 5.18021C7.31505 5.18015 7.06368 5.09062 6.84033 4.89994L6.74658 4.81205C6.49963 4.5605 6.38135 4.27067 6.38135 3.91654C6.38141 3.60677 6.4716 3.34637 6.65967 3.11771L6.74658 3.02201C6.99318 2.77082 7.27268 2.65392 7.61182 2.65385Z" stroke="#181715"/>
<path d="M24.9194 2.65385C25.2162 2.65385 25.4675 2.74349 25.6909 2.93412L25.7856 3.02201C26.0324 3.27344 26.1508 3.56265 26.1509 3.91654C26.1509 4.27066 26.0326 4.5605 25.7856 4.81205C25.539 5.06332 25.2587 5.18021 24.9194 5.18021C24.6227 5.18015 24.3713 5.09062 24.1479 4.89994L24.0542 4.81205C23.8072 4.5605 23.689 4.27067 23.689 3.91654C23.689 3.60677 23.7792 3.34637 23.9673 3.11771L24.0542 3.02201C24.3008 2.77082 24.5803 2.65392 24.9194 2.65385Z" stroke="#181715"/>
</svg>
