<svg width="345" height="31" viewBox="0 0 345 31" fill="none" xmlns="http://www.w3.org/2000/svg">
<path d="M319.551 0.639893H341.791C342.645 0.639893 343.271 0.746559 343.671 0.959892C344.071 1.14656 344.338 1.45322 344.471 1.87989C344.605 2.30656 344.671 2.86656 344.671 3.55989C344.671 4.25323 344.605 4.81323 344.471 5.23989C344.338 5.63989 344.111 5.91989 343.791 6.07989C343.311 6.31989 342.631 6.43989 341.751 6.43989H334.111V26.5599C334.111 27.1732 334.085 27.6266 334.031 27.9199C334.005 28.2132 333.885 28.5599 333.671 28.9599C333.485 29.3332 333.138 29.5999 332.631 29.7599C332.125 29.9199 331.458 29.9999 330.631 29.9999C329.805 29.9999 329.138 29.9199 328.631 29.7599C328.151 29.5999 327.805 29.3332 327.591 28.9599C327.405 28.5599 327.285 28.2132 327.231 27.9199C327.205 27.5999 327.191 27.1332 327.191 26.5199V6.43989H319.511C318.658 6.43989 318.031 6.34656 317.631 6.15989C317.231 5.94656 316.965 5.62656 316.831 5.19989C316.698 4.77323 316.631 4.21322 316.631 3.51989C316.631 2.82656 316.698 2.27989 316.831 1.87989C316.965 1.45322 317.191 1.15989 317.511 0.999892C317.991 0.759892 318.671 0.639893 319.551 0.639893Z" fill="#FB9927"/>
<path d="M299.204 22.9199H311.524C312.137 22.9199 312.59 22.9466 312.884 22.9999C313.204 23.0266 313.564 23.1466 313.964 23.3599C314.684 23.7333 315.044 24.7733 315.044 26.4799C315.044 28.3466 314.55 29.4399 313.564 29.7599C313.11 29.9199 312.417 29.9999 311.484 29.9999H295.644C293.777 29.9999 292.684 29.4933 292.364 28.4799C292.204 28.0533 292.124 27.3733 292.124 26.4399V4.19993C292.124 2.83993 292.377 1.91993 292.884 1.43993C293.39 0.933265 294.35 0.679932 295.764 0.679932H311.524C312.137 0.679932 312.59 0.706599 312.884 0.759933C313.204 0.7866 313.564 0.906598 313.964 1.11993C314.684 1.49327 315.044 2.53327 315.044 4.23993C315.044 6.1066 314.55 7.19993 313.564 7.51993C313.11 7.67993 312.417 7.75993 311.484 7.75993H299.204V11.7999H307.124C307.737 11.7999 308.19 11.8266 308.484 11.8799C308.804 11.9066 309.164 12.0266 309.564 12.2399C310.284 12.6133 310.644 13.6533 310.644 15.3599C310.644 17.2266 310.137 18.3199 309.124 18.6399C308.67 18.7999 307.977 18.8799 307.044 18.8799H299.204V22.9199Z" fill="#FB9927"/>
<path d="M279.137 15.28C283.217 19.2 286.11 22.1466 287.817 24.12C288.697 25.1066 289.137 25.9466 289.137 26.64C289.137 27.3066 288.603 28.1066 287.537 29.04C286.47 29.9466 285.59 30.4 284.897 30.4C284.23 30.4 283.417 29.84 282.457 28.72L273.657 18.68V26.48C273.657 27.12 273.63 27.5866 273.577 27.88C273.55 28.1733 273.43 28.52 273.217 28.92C272.843 29.64 271.803 30 270.097 30C268.23 30 267.137 29.4933 266.817 28.48C266.657 28.0533 266.577 27.3733 266.577 26.44V4.19995C266.577 3.58662 266.59 3.13329 266.617 2.83995C266.67 2.51995 266.803 2.15995 267.017 1.75995C267.39 1.03995 268.43 0.679953 270.137 0.679953C272.003 0.679953 273.11 1.17329 273.457 2.15995C273.59 2.61329 273.657 3.30662 273.657 4.23995V11.88C277.283 7.79995 280.217 4.45329 282.457 1.83995C283.39 0.746619 284.203 0.199951 284.897 0.199951C285.59 0.199951 286.47 0.666619 287.537 1.59995C288.603 2.50662 289.137 3.30662 289.137 3.99995C289.137 4.66662 288.737 5.46662 287.937 6.39995C286.39 8.18662 283.99 10.64 280.737 13.76L279.137 15.28Z" fill="#FB9927"/>
<path d="M243.696 25.88C243.003 25.0266 242.656 24.2666 242.656 23.6C242.656 22.9066 243.23 22 244.376 20.88C245.043 20.24 245.75 19.92 246.496 19.92C247.243 19.92 248.283 20.5866 249.616 21.92C249.99 22.3733 250.523 22.8133 251.216 23.24C251.91 23.64 252.55 23.84 253.136 23.84C255.616 23.84 256.856 22.8266 256.856 20.8C256.856 20.1866 256.51 19.68 255.816 19.28C255.15 18.8533 254.31 18.5466 253.296 18.36C252.283 18.1733 251.19 17.88 250.016 17.48C248.843 17.0533 247.75 16.56 246.736 16C245.723 15.44 244.87 14.56 244.176 13.36C243.51 12.1333 243.176 10.6666 243.176 8.95995C243.176 6.61329 244.043 4.57329 245.776 2.83995C247.536 1.07995 249.923 0.199951 252.936 0.199951C254.536 0.199951 255.99 0.413285 257.296 0.839952C258.63 1.23995 259.55 1.65329 260.056 2.07995L261.056 2.83995C261.883 3.61329 262.296 4.26662 262.296 4.79995C262.296 5.33329 261.976 6.06662 261.336 6.99995C260.43 8.33329 259.496 8.99995 258.536 8.99995C257.976 8.99995 257.283 8.73329 256.456 8.19995C256.376 8.14662 256.216 8.01329 255.976 7.79995C255.763 7.58662 255.563 7.41329 255.376 7.27995C254.816 6.93329 254.096 6.75995 253.216 6.75995C252.363 6.75995 251.643 6.97329 251.056 7.39995C250.496 7.79995 250.216 8.37329 250.216 9.11995C250.216 9.83995 250.55 10.4266 251.216 10.88C251.91 11.3333 252.763 11.64 253.776 11.8C254.79 11.96 255.896 12.2133 257.096 12.56C258.296 12.88 259.403 13.28 260.416 13.76C261.43 14.24 262.27 15.08 262.936 16.28C263.63 17.4533 263.976 18.9066 263.976 20.64C263.976 22.3733 263.63 23.9066 262.936 25.24C262.243 26.5466 261.336 27.56 260.216 28.28C258.056 29.6933 255.75 30.4 253.296 30.4C252.043 30.4 250.856 30.2533 249.736 29.96C248.616 29.64 247.71 29.2533 247.016 28.8C245.603 27.9466 244.616 27.12 244.056 26.32L243.696 25.88Z" fill="#FB9927"/>
<path d="M230.801 2.75993L241.601 25.0799C242.055 25.9866 242.281 26.6666 242.281 27.1199C242.281 28.0799 241.508 28.9466 239.961 29.7199C239.055 30.1733 238.335 30.3999 237.801 30.3999C237.295 30.3999 236.868 30.2799 236.521 30.0399C236.201 29.7999 235.961 29.5466 235.801 29.2799C235.668 29.0133 235.468 28.6133 235.201 28.0799L233.121 23.7599H222.041L219.961 28.0799C219.695 28.6133 219.481 28.9999 219.321 29.2399C219.188 29.4799 218.948 29.7333 218.601 29.9999C218.281 30.2399 217.855 30.3599 217.321 30.3599C216.815 30.3599 216.108 30.1333 215.201 29.6799C213.655 28.9333 212.881 28.0799 212.881 27.1199C212.881 26.6666 213.108 25.9866 213.561 25.0799L224.361 2.71993C224.655 2.1066 225.095 1.61326 225.681 1.23993C226.295 0.866598 226.935 0.679932 227.601 0.679932C229.041 0.679932 230.108 1.37327 230.801 2.75993ZM227.561 12.3599L224.921 17.8399H230.241L227.561 12.3599Z" fill="#FB9927"/>
<path d="M208.902 14.2799C210.475 16.1466 211.262 18.2399 211.262 20.5599C211.209 23.2266 210.289 25.4666 208.502 27.2799C206.742 29.0666 204.595 29.9599 202.062 29.9599H191.542C189.675 29.9599 188.582 29.4532 188.262 28.4399C188.102 27.9866 188.022 27.2932 188.022 26.3599V4.15989C188.022 3.51989 188.035 3.05323 188.062 2.75989C188.115 2.46656 188.249 2.11989 188.462 1.71989C188.835 0.999892 189.875 0.639893 191.582 0.639893H201.662C204.115 0.639893 206.169 1.49323 207.822 3.19989C209.555 4.93323 210.422 7.01323 210.422 9.43989C210.422 11.1999 209.915 12.8132 208.902 14.2799ZM204.182 20.1599C204.182 19.5199 204.102 19.0132 203.942 18.6399C203.809 18.2666 203.569 17.9999 203.222 17.8399C202.689 17.6266 201.942 17.5199 200.982 17.5199C200.022 17.5199 199.302 17.3332 198.822 16.9599C198.342 16.5866 198.102 15.8266 198.102 14.6799C198.102 13.5066 198.342 12.7332 198.822 12.3599C199.329 11.9866 200.155 11.7999 201.302 11.7999C202.369 11.7999 203.009 11.5199 203.222 10.9599C203.302 10.6666 203.342 10.1866 203.342 9.51989C203.342 8.85323 203.115 8.38656 202.662 8.11989C202.235 7.85323 201.582 7.71989 200.702 7.71989H195.102V22.8799H201.662C203.342 22.8799 204.182 21.9732 204.182 20.1599Z" fill="#FB9927"/>
<path d="M169.594 22.9199H181.914C182.527 22.9199 182.981 22.9466 183.274 22.9999C183.594 23.0266 183.954 23.1466 184.354 23.3599C185.074 23.7333 185.434 24.7733 185.434 26.4799C185.434 28.3466 184.941 29.4399 183.954 29.7599C183.501 29.9199 182.807 29.9999 181.874 29.9999H166.034C164.167 29.9999 163.074 29.4933 162.754 28.4799C162.594 28.0533 162.514 27.3733 162.514 26.4399V4.19993C162.514 2.83993 162.767 1.91993 163.274 1.43993C163.781 0.933265 164.741 0.679932 166.154 0.679932H181.914C182.527 0.679932 182.981 0.706599 183.274 0.759933C183.594 0.7866 183.954 0.906598 184.354 1.11993C185.074 1.49327 185.434 2.53327 185.434 4.23993C185.434 6.1066 184.941 7.19993 183.954 7.51993C183.501 7.67993 182.807 7.75993 181.874 7.75993H169.594V11.7999H177.514C178.127 11.7999 178.581 11.8266 178.874 11.8799C179.194 11.9066 179.554 12.0266 179.954 12.2399C180.674 12.6133 181.034 13.6533 181.034 15.3599C181.034 17.2266 180.527 18.3199 179.514 18.6399C179.061 18.7999 178.367 18.8799 177.434 18.8799H169.594V22.9199Z" fill="#FB9927"/>
<path d="M135.176 0.639893H157.416C158.27 0.639893 158.896 0.746559 159.296 0.959892C159.696 1.14656 159.963 1.45322 160.096 1.87989C160.23 2.30656 160.296 2.86656 160.296 3.55989C160.296 4.25323 160.23 4.81323 160.096 5.23989C159.963 5.63989 159.736 5.91989 159.416 6.07989C158.936 6.31989 158.256 6.43989 157.376 6.43989H149.736V26.5599C149.736 27.1732 149.71 27.6266 149.656 27.9199C149.63 28.2132 149.51 28.5599 149.296 28.9599C149.11 29.3332 148.763 29.5999 148.256 29.7599C147.75 29.9199 147.083 29.9999 146.256 29.9999C145.43 29.9999 144.763 29.9199 144.256 29.7599C143.776 29.5999 143.43 29.3332 143.216 28.9599C143.03 28.5599 142.91 28.2132 142.856 27.9199C142.83 27.5999 142.816 27.1332 142.816 26.5199V6.43989H135.136C134.283 6.43989 133.656 6.34656 133.256 6.15989C132.856 5.94656 132.59 5.62656 132.456 5.19989C132.323 4.77323 132.256 4.21322 132.256 3.51989C132.256 2.82656 132.323 2.27989 132.456 1.87989C132.59 1.45322 132.816 1.15989 133.136 0.999892C133.616 0.759892 134.296 0.639893 135.176 0.639893Z" fill="#FB9927"/>
<path d="M105.919 0.639893H128.159C129.012 0.639893 129.639 0.746559 130.039 0.959892C130.439 1.14656 130.705 1.45322 130.839 1.87989C130.972 2.30656 131.039 2.86656 131.039 3.55989C131.039 4.25323 130.972 4.81323 130.839 5.23989C130.705 5.63989 130.479 5.91989 130.159 6.07989C129.679 6.31989 128.999 6.43989 128.119 6.43989H120.479V26.5599C120.479 27.1732 120.452 27.6266 120.399 27.9199C120.372 28.2132 120.252 28.5599 120.039 28.9599C119.852 29.3332 119.505 29.5999 118.999 29.7599C118.492 29.9199 117.825 29.9999 116.999 29.9999C116.172 29.9999 115.505 29.9199 114.999 29.7599C114.519 29.5999 114.172 29.3332 113.959 28.9599C113.772 28.5599 113.652 28.2132 113.599 27.9199C113.572 27.5999 113.559 27.1332 113.559 26.5199V6.43989H105.879C105.025 6.43989 104.399 6.34656 103.999 6.15989C103.599 5.94656 103.332 5.62656 103.199 5.19989C103.065 4.77323 102.999 4.21322 102.999 3.51989C102.999 2.82656 103.065 2.27989 103.199 1.87989C103.332 1.45322 103.559 1.15989 103.879 0.999892C104.359 0.759892 105.039 0.639893 105.919 0.639893Z" fill="#FB9927"/>
<path d="M85.5707 22.9199H97.8907C98.5041 22.9199 98.9574 22.9466 99.2507 22.9999C99.5707 23.0266 99.9307 23.1466 100.331 23.3599C101.051 23.7333 101.411 24.7733 101.411 26.4799C101.411 28.3466 100.917 29.4399 99.9307 29.7599C99.4774 29.9199 98.7841 29.9999 97.8507 29.9999H82.0107C80.1441 29.9999 79.0507 29.4933 78.7307 28.4799C78.5707 28.0533 78.4907 27.3733 78.4907 26.4399V4.19993C78.4907 2.83993 78.7441 1.91993 79.2507 1.43993C79.7574 0.933265 80.7174 0.679932 82.1307 0.679932H97.8907C98.5041 0.679932 98.9574 0.706599 99.2507 0.759933C99.5707 0.7866 99.9307 0.906598 100.331 1.11993C101.051 1.49327 101.411 2.53327 101.411 4.23993C101.411 6.1066 100.917 7.19993 99.9307 7.51993C99.4774 7.67993 98.7841 7.75993 97.8507 7.75993H85.5707V11.7999H93.4907C94.1041 11.7999 94.5574 11.8266 94.8507 11.8799C95.1707 11.9066 95.5307 12.0266 95.9307 12.2399C96.6507 12.6133 97.0107 13.6533 97.0107 15.3599C97.0107 17.2266 96.5041 18.3199 95.4907 18.6399C95.0374 18.7999 94.3441 18.8799 93.4107 18.8799H85.5707V22.9199Z" fill="#FB9927"/>
<path d="M69.6622 22.3199L70.3822 21.7999C71.2889 21.2666 71.9289 20.9999 72.3022 20.9999C73.1289 20.9999 74.0222 21.7466 74.9822 23.2399C75.5689 24.1732 75.8622 24.9199 75.8622 25.4799C75.8622 26.0399 75.6755 26.5066 75.3022 26.8799C74.9555 27.2532 74.5422 27.5866 74.0622 27.8799C73.5822 28.1732 73.1155 28.4532 72.6622 28.7199C72.2355 28.9866 71.3422 29.3332 69.9822 29.7599C68.6222 30.1866 67.3022 30.3999 66.0222 30.3999C64.7689 30.3999 63.4889 30.2399 62.1822 29.9199C60.9022 29.5732 59.5689 29.0132 58.1822 28.2399C56.8222 27.4399 55.5955 26.4799 54.5022 25.3599C53.4089 24.2132 52.5022 22.7599 51.7822 20.9999C51.0889 19.2132 50.7422 17.2799 50.7422 15.1999C50.7422 13.1199 51.0889 11.2399 51.7822 9.5599C52.4755 7.85323 53.3555 6.45323 54.4222 5.3599C55.5155 4.2399 56.7555 3.30657 58.1422 2.5599C60.7555 1.1199 63.3822 0.399902 66.0222 0.399902C67.2755 0.399902 68.5422 0.599902 69.8222 0.999902C71.1289 1.37324 72.1155 1.7599 72.7822 2.1599L73.7422 2.7199C74.2222 3.01324 74.5955 3.25324 74.8622 3.4399C75.5555 3.9999 75.9022 4.6399 75.9022 5.3599C75.9022 6.05323 75.6222 6.78657 75.0622 7.5599C74.0222 8.9999 73.0889 9.7199 72.2622 9.7199C71.7822 9.7199 71.1022 9.42657 70.2222 8.8399C69.1022 7.93323 67.6089 7.4799 65.7422 7.4799C64.0089 7.4799 62.3022 8.0799 60.6222 9.2799C59.8222 9.86657 59.1555 10.6932 58.6222 11.7599C58.0889 12.8266 57.8222 14.0399 57.8222 15.3999C57.8222 16.7332 58.0889 17.9332 58.6222 18.9999C59.1555 20.0666 59.8355 20.9066 60.6622 21.5199C62.2889 22.6932 63.9822 23.2799 65.7422 23.2799C66.5689 23.2799 67.3422 23.1732 68.0622 22.9599C68.8089 22.7466 69.3422 22.5332 69.6622 22.3199Z" fill="#FB9927"/>
<path d="M32.9145 22.9199H45.2345C45.8478 22.9199 46.3011 22.9466 46.5945 22.9999C46.9145 23.0266 47.2745 23.1466 47.6745 23.3599C48.3945 23.7333 48.7545 24.7733 48.7545 26.4799C48.7545 28.3466 48.2611 29.4399 47.2745 29.7599C46.8211 29.9199 46.1278 29.9999 45.1945 29.9999H29.3545C27.4878 29.9999 26.3945 29.4933 26.0745 28.4799C25.9145 28.0533 25.8345 27.3733 25.8345 26.4399V4.19993C25.8345 2.83993 26.0878 1.91993 26.5945 1.43993C27.1011 0.933265 28.0611 0.679932 29.4745 0.679932H45.2345C45.8478 0.679932 46.3011 0.706599 46.5945 0.759933C46.9145 0.7866 47.2745 0.906598 47.6745 1.11993C48.3945 1.49327 48.7545 2.53327 48.7545 4.23993C48.7545 6.1066 48.2611 7.19993 47.2745 7.51993C46.8211 7.67993 46.1278 7.75993 45.1945 7.75993H32.9145V11.7999H40.8345C41.4478 11.7999 41.9011 11.8266 42.1945 11.8799C42.5145 11.9066 42.8745 12.0266 43.2745 12.2399C43.9945 12.6133 44.3545 13.6533 44.3545 15.3599C44.3545 17.2266 43.8478 18.3199 42.8345 18.6399C42.3811 18.7999 41.6878 18.8799 40.7545 18.8799H32.9145V22.9199Z" fill="#FB9927"/>
<path d="M23.0401 25.0399C23.4401 25.9999 23.6401 26.6933 23.6401 27.1199C23.6401 28.1333 22.8134 28.9866 21.1601 29.6799C20.3068 30.0533 19.6134 30.2399 19.0801 30.2399C18.5734 30.2399 18.1468 30.1199 17.8001 29.8799C17.4801 29.6133 17.2401 29.3466 17.0801 29.0799C16.8134 28.5733 15.7734 26.1599 13.9601 21.8399L12.7201 21.9199H7.6801V26.4399C7.6801 27.0533 7.65343 27.5199 7.6001 27.8399C7.57343 28.1333 7.45343 28.4799 7.2401 28.8799C6.86676 29.5999 5.82676 29.9599 4.1201 29.9599C2.25343 29.9599 1.1601 29.4666 0.840098 28.4799C0.680098 28.0266 0.600098 27.3333 0.600098 26.3999V4.19993C0.600098 3.5866 0.613431 3.13327 0.640098 2.83993C0.693431 2.51993 0.826764 2.15993 1.0401 1.75993C1.41343 1.03993 2.45343 0.679932 4.1601 0.679932H12.8001C15.1468 0.679932 17.4268 1.53327 19.6401 3.23993C20.7068 4.0666 21.5868 5.1866 22.2801 6.59993C22.9734 8.01327 23.3201 9.5866 23.3201 11.3199C23.3201 14.3333 22.3201 16.8133 20.3201 18.7599C20.9068 20.1733 21.8134 22.2666 23.0401 25.0399ZM7.6801 14.8399H12.8001C13.5734 14.8399 14.3468 14.5466 15.1201 13.9599C15.8934 13.3733 16.2801 12.4933 16.2801 11.3199C16.2801 10.1466 15.8934 9.2666 15.1201 8.67993C14.3468 8.0666 13.5468 7.75993 12.7201 7.75993H7.6801V14.8399Z" fill="#FB9927"/>
</svg>
