<svg width="25" height="29" viewBox="0 0 25 29" fill="none" xmlns="http://www.w3.org/2000/svg">
<path d="M12.5 5.65909C11.7361 5.65909 11.0822 5.38203 10.5382 4.82791C9.99421 4.27379 9.72222 3.60767 9.72222 2.82955C9.72222 2.05142 9.99421 1.3853 10.5382 0.831179C11.0822 0.27706 11.7361 0 12.5 0C13.2639 0 13.9178 0.27706 14.4618 0.831179C15.0058 1.3853 15.2778 2.05142 15.2778 2.82955C15.2778 3.60767 15.0058 4.27379 14.4618 4.82791C13.9178 5.38203 13.2639 5.65909 12.5 5.65909ZM8.33333 28.2955V9.90341C6.94444 9.78551 5.53241 9.60866 4.09722 9.37287C2.66204 9.13707 1.2963 8.84233 0 8.48864L0.694444 5.65909C2.5 6.15426 4.4213 6.51385 6.45833 6.73786C8.49537 6.96186 10.5093 7.07386 12.5 7.07386C14.4907 7.07386 16.5046 6.96186 18.5417 6.73786C20.5787 6.51385 22.5 6.15426 24.3056 5.65909L25 8.48864C23.7037 8.84233 22.338 9.13707 20.9028 9.37287C19.4676 9.60866 18.0556 9.78551 16.6667 9.90341V28.2955H13.8889V19.8068H11.1111V28.2955H8.33333Z" fill="#1C1B1F"/>
</svg>
