<svg width="32" height="31" viewBox="0 0 32 31" fill="none" xmlns="http://www.w3.org/2000/svg">
<path d="M20.0891 16.8824C20.5384 16.8824 20.9219 17.018 21.2571 17.2984L21.3977 17.4273C21.7653 17.7949 21.9425 18.2217 21.9426 18.7349C21.9426 19.1842 21.8069 19.5677 21.5266 19.9029L21.3977 20.0435C21.0299 20.4113 20.6025 20.5884 20.0891 20.5884C19.6401 20.5883 19.2572 20.4526 18.9221 20.1724L18.7815 20.0435C18.4137 19.6757 18.2366 19.2483 18.2366 18.7349C18.2367 18.2858 18.3724 17.903 18.6526 17.5679L18.7815 17.4273C19.1492 17.0596 19.5759 16.8824 20.0891 16.8824Z" stroke="#181715"/>
<path d="M20.0898 9.82354C22.3909 9.82361 24.3703 10.5869 26.0508 12.1243L26.3828 12.4417C28.1329 14.1918 29.001 16.2811 29.001 18.7356C29.0009 21.0366 28.2384 23.0162 26.7012 24.6966L26.3828 25.0286C24.6328 26.7786 22.5443 27.6467 20.0898 27.6468C17.7887 27.6468 15.8084 26.8844 14.1279 25.347L13.7959 25.0286C12.046 23.2786 11.1778 21.19 11.1777 18.7356C11.1777 16.4344 11.9409 14.4543 13.4785 12.7737L13.7959 12.4417C15.546 10.6916 17.6353 9.82354 20.0898 9.82354Z" stroke="#181715"/>
<path d="M20.0894 7.4706C22.9973 7.4706 25.502 8.43616 27.6255 10.3788L28.0444 10.7802C30.2553 12.9911 31.354 15.6336 31.354 18.7352C31.354 21.8369 30.2553 24.4794 28.0444 26.6903C25.8335 28.9012 23.191 29.9999 20.0894 29.9999C17.1816 29.9999 14.6776 29.0341 12.5542 27.0917L12.1343 26.6903C9.92341 24.4794 8.82471 21.8368 8.82471 18.7352C8.82472 15.8275 9.79057 13.3235 11.7329 11.2001L12.1343 10.7802C14.3452 8.56928 16.9878 7.47061 20.0894 7.4706Z" stroke="#181715"/>
<path d="M28.4788 5.67013L21.2101 3.59335C20.9252 3.51194 20.7732 3.20201 20.8832 2.92689L21.6863 0.91906C21.7816 0.681007 22.0414 0.553557 22.2879 0.623993L29.5567 2.70077C29.8416 2.78218 29.9936 3.0921 29.8835 3.36723L29.0804 5.37506C28.9852 5.61311 28.7253 5.74056 28.4788 5.67013Z" stroke="#181715" stroke-linecap="round"/>
<path d="M22.4423 4.02943L21.2659 6.9706" stroke="#181715" stroke-linecap="round"/>
<path d="M27.1482 5.79411L25.9717 8.73528" stroke="#181715" stroke-linecap="round"/>
<path d="M16.5601 11.0882L17.1483 12.2647" stroke="#181715" stroke-linecap="round"/>
<path d="M11.8542 15.7941L13.619 16.3824" stroke="#181715" stroke-linecap="round"/>
<path d="M15.6959 14.2272C15.4803 14.0547 15.1656 14.0897 14.9931 14.3053C14.8206 14.5209 14.8556 14.8356 15.0712 15.0081L15.6959 14.2272ZM18.0124 17.361L18.4028 17.6734L19.0275 16.8925L18.6371 16.5802L18.0124 17.361ZM15.0712 15.0081L18.0124 17.361L18.6371 16.5802L15.6959 14.2272L15.0712 15.0081Z" fill="#181715"/>
<path d="M20.6775 16.3823L23.0304 10.5" stroke="#181715" stroke-linecap="square"/>
<path d="M22.4424 19.3235L28.3247 21.6765" stroke="#181715" stroke-linecap="square"/>
<path d="M20.0894 21.0882V22.2647" stroke="#181715" stroke-linecap="round"/>
<path d="M12.4424 22.8529L13.6189 22.2647" stroke="#181715" stroke-linecap="round"/>
<path d="M17.7366 26.9706L18.3248 25.7941" stroke="#181715" stroke-linecap="round"/>
<path d="M24.2071 26.3824L23.6189 25.2059" stroke="#181715" stroke-linecap="round"/>
<path d="M10.0894 8.23531C9.81321 8.23531 9.58936 8.45917 9.58936 8.73531C9.58936 9.01145 9.81321 9.23531 10.0894 9.23531V8.23531ZM14.207 9.23531H14.707V8.23531H14.207V9.23531ZM10.0894 9.23531H14.207V8.23531H10.0894V9.23531Z" fill="#181715"/>
<path d="M7.73636 8.73531H1.854" stroke="#181715" stroke-linecap="round"/>
<path d="M3.61865 11.6765H7.7363" stroke="#181715" stroke-linecap="round"/>
<path d="M5.38354 14.1176C5.1074 14.1176 4.88354 14.3415 4.88354 14.6176C4.88354 14.8938 5.1074 15.1176 5.38354 15.1176V14.1176ZM8.91296 15.1176H9.41296V14.1176H8.91296V15.1176ZM5.38354 15.1176H8.91296V14.1176H5.38354V15.1176Z" fill="#181715"/>
<path d="M1.26587 18.1471H5.38352" stroke="#181715" stroke-linecap="round"/>
<path d="M3.03052 20.5882C2.75438 20.5882 2.53052 20.8121 2.53052 21.0882C2.53052 21.3644 2.75438 21.5882 3.03052 21.5882V20.5882ZM8.32464 21.5882H8.82464V20.5882H8.32464V21.5882ZM3.03052 21.5882H8.32464V20.5882H3.03052V21.5882Z" fill="#181715"/>
<path d="M4.20703 24.6176H7.14821" stroke="#181715" stroke-linecap="round"/>
<path d="M7.14819 27.5588H13.0305" stroke="#181715" stroke-linecap="round"/>
</svg>
