<svg width="25" height="27" viewBox="0 0 25 27" fill="none" xmlns="http://www.w3.org/2000/svg">
<path d="M0 5V3H8.33333V2.02941C8.33333 1.56066 8.46643 1.16774 8.73264 0.850643C8.99884 0.533548 9.3287 0.375 9.72222 0.375H15.2778C15.6713 0.375 16.0012 0.533548 16.2674 0.850643C16.5336 1.16774 16.6667 1.56066 16.6667 2.02941V3H25V5H12.5H0Z" fill="#1C1B1F"/>
<path d="M0 7H12.5H25V21.5368C25 22.9154 24.5949 24.0873 23.7847 25.0524C22.9745 26.0175 21.9907 26.5 20.8333 26.5H4.16667C3.00926 26.5 2.02546 26.0175 1.21528 25.0524C0.405092 24.0873 0 22.9154 0 21.5368V7ZM2 9V21.375C2 21.8438 2.2338 23.0579 2.5 23.375C2.7662 23.6921 4.10648 24.375 4.5 24.375H12.5H21C21.3935 24.375 22.2338 23.6921 22.5 23.375C22.7662 23.0579 23 21.8438 23 21.375V9H2Z" fill="#1C1B1F"/>
</svg>
