<svg width="27" height="32" viewBox="0 0 27 32" fill="none" xmlns="http://www.w3.org/2000/svg">
<path d="M17.1836 4.13917L17.9327 1.8918C17.9963 1.70099 18.1687 1.56344 18.3698 1.56334C19.516 1.56276 20.0739 2.09607 20.6851 3.3645C20.8164 3.63689 20.664 3.95842 20.3732 4.04148L17.7953 4.77804C17.4086 4.8885 17.0564 4.52062 17.1836 4.13917Z" stroke="#181715" stroke-linecap="round"/>
<path d="M15.1528 12.5386C14.6021 11.2265 14.2142 10.8974 13.4637 10.8121C13.4361 10.809 13.4077 10.8086 13.3801 10.8107C12.6498 10.8679 12.2811 11.1331 11.9953 11.7229C11.827 12.0703 11.3616 12.1805 11.0821 11.9144C9.55677 10.4621 8.61281 10.4967 7.17136 11.3289C7.10869 11.3651 7.05402 11.4161 7.01364 11.4761C6.12147 12.8027 6.02911 13.7124 7.5522 15.3307C7.82819 15.624 7.69154 16.1118 7.30844 16.2359C6.52831 16.4886 6.20878 16.8343 6.48734 17.6957C6.49478 17.7187 6.5047 17.7423 6.51583 17.7637C7.21737 19.1149 8.16633 19.0309 8.80666 19.4615" stroke="#181715" stroke-linecap="round"/>
<path d="M19.9918 11.7382C20.187 11.9334 20.5036 11.9334 20.6989 11.7382C20.8941 11.5429 20.8941 11.2263 20.6989 11.0311L19.9918 11.7382ZM12.9356 10.3456L13.0504 10.8322L14.0237 10.6026L13.9089 10.116L12.9356 10.3456ZM14.9561 5.99541L14.6026 6.34896L14.9561 5.99541ZM14.2221 6.02044L13.8457 5.69134L14.2221 6.02044ZM20.6989 11.0311L15.3097 5.64186L14.6026 6.34896L19.9918 11.7382L20.6989 11.0311ZM13.8457 5.69134C13.356 6.25146 12.9265 6.7588 12.7434 7.48703C12.5628 8.20537 12.6354 9.07273 12.9356 10.3456L13.9089 10.116C13.6167 8.87725 13.5936 8.20637 13.7132 7.73089C13.8303 7.2653 14.0969 6.92325 14.5985 6.34954L13.8457 5.69134ZM15.3097 5.64186C14.8992 5.23142 14.2267 5.25555 13.8457 5.69134L14.5985 6.34954C14.5991 6.34892 14.5993 6.34879 14.5991 6.34889C14.5991 6.34891 14.5991 6.34895 14.599 6.34898C14.599 6.349 14.599 6.34901 14.5989 6.34902C14.5989 6.34902 14.5989 6.34903 14.5989 6.34903C14.5989 6.34903 14.5989 6.34903 14.5989 6.34903C14.5989 6.34901 14.5997 6.34872 14.6009 6.34867C14.6022 6.34863 14.6028 6.34888 14.6027 6.34882C14.6021 6.3486 14.6019 6.34827 14.6026 6.34896L15.3097 5.64186Z" fill="#181715"/>
<path d="M6.49907 13.6923C4.36122 13.5094 3.97414 14.113 4.57554 16.013C4.66926 16.309 4.48654 16.623 4.18629 16.7023C3.17142 16.9705 2.79905 17.3964 2.48539 18.2399C2.46877 18.2845 2.45887 18.3322 2.45716 18.3799C2.41899 19.4422 2.9747 19.8938 4.19138 20.6154M18.0376 9.07696C18.7425 8.25071 19.2133 7.93034 20.2877 7.9232C20.3257 7.92295 20.3646 7.92756 20.4014 7.93659C21.658 8.24399 22.0415 8.74649 22.0761 10.2308" stroke="#181715" stroke-linecap="round"/>
<path d="M23.8067 10.2306C23.9047 9.27293 23.6714 8.54411 23.1249 7.92295M22.076 6.7691C20.3057 5.89408 18.9456 5.66537 17.2659 7.50002" stroke="#181715" stroke-linecap="round"/>
<path d="M15.4414 8.78846H14.8645" stroke="#181715" stroke-linecap="round"/>
<path d="M10.5376 4.46154H9.96069" stroke="#181715" stroke-linecap="round"/>
<path d="M9.96071 6.76923L9.38379 6.19231" stroke="#181715" stroke-linecap="round"/>
<path d="M7.65283 7.34615V6.76923" stroke="#181715" stroke-linecap="round"/>
<path d="M16.3067 10.2308L15.7297 10.8077" stroke="#181715" stroke-linecap="round"/>
<path d="M1.75582 22.9231C2.57207 26.1655 4.12585 28.3316 8.10519 30.9192C8.18572 30.9716 8.28104 31 8.3771 31H17.3242C17.4136 31 17.5027 30.9753 17.5795 30.9295C22.4307 28.0359 24.1959 25.0843 24.3701 21.1211C24.3824 20.8432 24.1567 20.6154 23.8785 20.6154H1.88833C1.58236 20.6154 1.34772 20.8879 1.39868 21.1896C1.50223 21.8026 1.6186 22.378 1.75582 22.9231ZM1.75582 22.9231H17.4607M24.1634 22.9231H20.3453" stroke="#181715" stroke-linecap="round"/>
<path d="M10.5377 20.0385C10.5377 20.0385 10.5376 18.3077 12.2684 18.3077C13.9992 18.3077 13.9992 20.0385 13.9992 20.0385M8.80688 20.0385C8.80688 20.0385 8.80688 16.5769 12.2684 16.5769C15.73 16.5769 15.73 20.0385 15.73 20.0385" stroke="#181715" stroke-linecap="round"/>
<path d="M22.076 20.0385L16.5572 14.5197C16.4072 14.3696 16.1732 14.325 16.0067 14.4565C14.8408 15.3773 15.1529 17.7308 15.1529 17.7308" stroke="#181715" stroke-linecap="round"/>
<path d="M19.1914 16.5769L21.4991 14.2692" stroke="#181715" stroke-linecap="round"/>
<path d="M18.6145 20.6153C17.2539 18.8618 17.1599 17.3683 18.0376 16M23.2299 20.6153L22.8374 19.4379C22.7405 19.1471 22.9268 18.8395 23.2271 18.7777C24.6614 18.4822 25.2619 18.1014 25.5107 17.2526C25.5297 17.1878 25.5325 17.1192 25.5204 17.0527C25.4029 16.4082 25.1723 16.0316 24.5918 15.7308C24.2545 15.556 24.1419 15.1005 24.3924 14.8148C25.485 13.5682 25.5944 12.5966 25.0171 10.9636C24.9813 10.8623 24.9122 10.7753 24.8208 10.7188C23.377 9.8264 22.4114 10.0185 20.8075 11.5132C20.569 11.7355 20.1847 11.6878 20.0078 11.414C19.4204 10.505 19.0024 10.1658 18.1187 10.2244C18.0652 10.2279 18.0122 10.2415 17.9635 10.2641C17.2252 10.607 16.9197 11.0866 16.877 12.2658C16.8633 12.6466 16.4685 12.896 16.11 12.7668C15.5247 12.5559 15.0719 12.5763 14.6201 13.066C14.5905 13.0981 14.5658 13.1361 14.547 13.1755C13.7329 14.8901 14.2529 15.7068 15.153 17.1538" stroke="#181715" stroke-linecap="round"/>
<path d="M10.6182 1.49625L4.65876 7.45572C4.42428 7.6902 4.47938 8.08492 4.77319 8.23867C7.19807 9.50761 8.68616 9.62798 11.0347 7.97954C11.0868 7.94294 11.133 7.89444 11.167 7.84056C12.7031 5.40545 12.4713 3.93118 11.4157 1.63489C11.2722 1.32271 10.8612 1.2533 10.6182 1.49625Z" stroke="#181715" stroke-linecap="round"/>
<path d="M12.2684 16.5769L9.96069 14.2692" stroke="#181715" stroke-linecap="round"/>
<path d="M4.19128 16.5769C2.8642 15.0889 1.99709 14.261 3.01668 12.5725C3.03011 12.5503 3.04631 12.528 3.06332 12.5083C4.13416 11.2713 4.94603 11.363 6.49897 11.9615" stroke="#181715" stroke-linecap="round"/>
<path d="M3.03753 17.154C1.24638 15.8815 0.564684 15.4418 1.27931 12.0888C1.29679 12.0068 1.33605 11.9278 1.39155 11.8649C3.04015 9.99756 4.36793 9.34199 7.07599 10.8079" stroke="#181715" stroke-linecap="round"/>
</svg>
