<svg width="29" height="27" viewBox="0 0 29 27" fill="none" xmlns="http://www.w3.org/2000/svg">
<path d="M17.3859 10.8801C14.187 8.26519 16.3671 2.20606 27.2532 1.0519C27.5388 1.02162 27.7915 1.24141 27.7877 1.52859C27.7574 3.85998 27.2157 13.1044 20.5325 13.0086C20.3689 13.0063 20.206 13.0767 20.1074 13.2072C17.4972 16.6601 15.6942 21.0312 13.1505 26.1188C12.9674 26.4851 12.4463 26.484 12.2644 26.1171C8.7519 19.034 6.35191 12.8477 1.56273 7.07381C1.3965 6.87342 1.40762 6.57832 1.59172 6.39421L3.4548 4.53098C3.67113 4.31463 4.02985 4.34211 4.20961 4.58967C7.98932 9.79502 9.9787 13.8689 12.2718 19.2209C12.4413 19.6165 13.0003 19.6285 13.1893 19.2418C16.5227 12.4218 19.2695 8.18449 24.6659 3.59997" stroke="#181715" stroke-linecap="round"/>
</svg>
